<?xml version="1.0" encoding="utf-8"?>
<!-- Generator: Adobe Illustrator 28.0.0, SVG Export Plug-In . SVG Version: 6.00 Build 0)  -->
<svg version="1.1" id="Layer_1" xmlns="http://www.w3.org/2000/svg" xmlns:xlink="http://www.w3.org/1999/xlink" x="0px" y="0px"
	 viewBox="0 0 513 129.83" style="enable-background:new 0 0 513 129.83;" xml:space="preserve">
<style type="text/css">
	.st0{fill-rule:evenodd;clip-rule:evenodd;fill:#256E25;}
	.st1{fill-rule:evenodd;clip-rule:evenodd;fill:#BBCF28;}
	.st2{fill-rule:evenodd;clip-rule:evenodd;fill:#85B623;}
	.st3{fill-rule:evenodd;clip-rule:evenodd;fill:#54952A;}
	.st4{fill-rule:evenodd;clip-rule:evenodd;fill:#A8C71D;}
</style>
<g>
	<path class="st0" d="M22.96,80.14v-8.31h2.42c2.42,0,3.5,1.28,3.5,3.34v1.72c0,2.01-1.09,3.24-3.5,3.24H22.96z M15.7,86.78h10.68
		c10.43,0,14.85-3.39,14.85-9.88v-1.77c0-5.41-4.42-9.93-14.85-9.93h-3.42v-3.54c0-1.97,1.75-3.15,4.67-3.15h9.6
		c0.92,0,1.67-0.44,1.67-0.98v-4.67c0-0.54-0.75-0.98-1.67-0.98h-9.6c-10.18,0-16.94,3.93-16.94,9.78v22.17
		C10.7,85.75,12.45,86.78,15.7,86.78z"/>
	<path class="st0" d="M61.34,86.78h9.59c3.25,0,5.01-1.03,5.01-2.95V53.11c0-0.64-0.58-0.98-1.67-0.98h-8.84
		c-1.08,0-1.67,0.34-1.67,0.98v27.04h-2.09c-2.42,0-3.84-1.28-3.84-3.15V53.11c0-0.64-0.58-0.98-1.67-0.98h-9.01
		c-1.08,0-1.67,0.34-1.67,0.98v23.64C45.49,82.45,50.25,86.78,61.34,86.78"/>
	<path class="st0" d="M97.89,80.39c-2.09,0-3.34-0.79-3.34-2.16V60.43c0-1.38,1.25-2.16,3.34-2.16c2.09,0,3.34,0.79,3.34,2.16v17.79
		C101.23,79.6,99.97,80.39,97.89,80.39 M113.57,77.64V61.02c0-5.7-6.34-9.49-15.69-9.49c-9.34,0-15.69,3.78-15.69,9.49v16.62
		c0,5.7,6.34,9.49,15.69,9.49C107.23,87.12,113.57,83.34,113.57,77.64z"/>
	<path class="st0" d="M219.21,61.02v16.62c0,5.7,6.17,9.49,15.44,9.49c9.18,0,14.77-3.83,15.19-10.37c0.08-0.74-0.5-1.13-1.59-1.13
		h-9.01c-1,0-1.59,0.34-1.67,0.98c-0.17,2.56-1.33,3.74-3.25,3.74c-1.67,0-2.75-0.79-2.75-2.11V60.43c0-1.33,1.08-2.11,2.75-2.11
		c1.75,0,2.84,0.98,2.92,3.24c0,0.64,0.67,0.98,1.67,0.98h9.01c1.09,0,1.59-0.34,1.59-1.03c-0.33-6.29-6.09-9.98-14.85-9.98
		C225.38,51.53,219.21,55.32,219.21,61.02"/>
	<path class="st0" d="M261.46,86.53h0.05h8.9c1.05-0.01,1.62-0.35,1.62-0.98V58.76h7.26c1.08,0,1.67-0.34,1.67-0.98v-4.67
		c0-0.64-0.58-0.98-1.67-0.98h-26.7c-1.08,0-1.67,0.34-1.67,0.98v4.67c0,0.64,0.59,0.98,1.67,0.98h7.26v26.79
		C259.84,86.18,260.41,86.52,261.46,86.53"/>
	<path class="st0" d="M295.13,69.97v-9.54c0-1.33,1.17-2.11,3.09-2.11c1.92,0,3.09,0.79,3.09,2.11v9.54H295.13z M284.49,86.53h9.03
		c1.05-0.01,1.62-0.35,1.62-0.98V76.6h6.17v8.95c0,0.63,0.57,0.97,1.62,0.98h9.03c1.05-0.01,1.62-0.35,1.62-0.98V61.02
		c0-5.7-6.17-9.49-15.35-9.49c-9.18,0-15.35,3.78-15.35,9.49v24.53C282.87,86.18,283.44,86.52,284.49,86.53z"/>
	<path class="st0" d="M321.87,86.53h0.05h8.89c1.05-0.01,1.62-0.35,1.62-0.98V72.52h5.67v13.03c0,0.63,0.57,0.97,1.62,0.98h8.95
		c1.05-0.01,1.62-0.35,1.62-0.98V53.11c0-0.64-0.58-0.98-1.67-0.98h-8.85c-1.08,0-1.67,0.34-1.67,0.98v12.78h-5.67V53.11
		c0-0.64-0.58-0.98-1.67-0.98h-8.84c-1.09,0-1.67,0.34-1.67,0.98v32.44C320.25,86.18,320.81,86.52,321.87,86.53"/>
	<path class="st0" d="M368.39,79.9c3.09-1.33,3.92-3.88,3.92-9.34v-9.34c0-1.62,1.33-2.7,3.75-2.7h2V79.9H368.39z M395.43,91.4
		v-7.77c0-2.21-1.92-3.74-5.17-3.74V54.83c0-1.92-1.75-2.95-5.01-2.95h-9.59c-9.35,0-15.6,3.74-15.6,9.39v7.52
		c0,7.47-1.09,9.19-3.5,10.32c-2.17,0.98-3.92,2.06-3.92,3.74v8.55c0,0.64,0.58,0.98,1.67,0.98h8.59c1.08,0,1.67-0.34,1.67-0.98
		v-4.87h18.94v4.87c0,0.64,0.58,0.98,1.67,0.98h8.59C394.84,92.38,395.43,92.04,395.43,91.4z"/>
	<path class="st0" d="M411.53,69.97v-9.54c0-1.33,1.17-2.11,3.09-2.11s3.09,0.79,3.09,2.11v9.54H411.53z M400.88,86.53h9.03
		c1.05-0.01,1.62-0.35,1.62-0.98V76.6h6.18v8.95c0,0.63,0.57,0.97,1.62,0.98h9.03c1.05-0.01,1.62-0.35,1.62-0.98V61.02
		c0-5.7-6.17-9.49-15.35-9.49c-9.18,0-15.35,3.78-15.35,9.49v24.53C399.26,86.18,399.83,86.52,400.88,86.53z"/>
	<path class="st0" d="M448.58,68.34v-7.91c0-1.33,1.17-2.11,3.01-2.11c2,0,3.17,0.79,3.17,2.11v5.31c0,1.82-1.17,2.61-3.92,2.61
		H448.58z M437.93,86.53h9.03c1.05-0.01,1.62-0.35,1.62-0.98V74.98h3.09c9.26,0,15.44-3.78,15.44-9.49v-4.47
		c0-5.7-6.34-9.49-15.69-9.49c-9.01,0-15.1,3.78-15.1,9.49v24.53C436.31,86.18,436.88,86.52,437.93,86.53z"/>
	<path class="st0" d="M479.15,86.53h0.05h8.89c1.05-0.01,1.62-0.35,1.62-0.98V58.76h7.26c1.08,0,1.67-0.34,1.67-0.98v-4.67
		c0-0.64-0.58-0.98-1.67-0.98h-26.7c-1.08,0-1.67,0.34-1.67,0.98v4.67c0,0.64,0.58,0.98,1.67,0.98h7.26v26.79
		C477.53,86.18,478.1,86.52,479.15,86.53"/>
	<polygon class="st1" points="168.59,88.65 168.53,88.6 168.52,88.7 168.53,88.7 	"/>
	<path class="st2" d="M159.1,109.4c0.9-0.7,1.78-1.42,2.65-2.13c-0.59,0.69-1.19,1.38-1.8,2.07L159.1,109.4z M136.69,61.17
		c-1.72,9.71-1.32,18.06,0.56,25.57c2.06,9.01,7.08,17.99,13.75,26.38l-6.92-8.24c-13.41-13.73-29.86-39.92,1.6-69.84
		c-4.84,1.73-9.83,6.39-15.01,14.8c8.31-14.95,19.64-26.62,40.26-28.18c-15.53,18.58-30.17,27.69-33.44,45.72
		C136.8,65.67,136.97,64.51,136.69,61.17z M176.16,11.81c1.5,2.42,2.85,4.85,4.06,7.3C178.98,16.72,177.64,14.28,176.16,11.81
		c4.34,4.69,8.16,9.56,11,14.8c21.24,20.62,15.81,40.96,6.64,60.16c3.88-4.94,7.29-10.48,10.53-16.24
		c-6.58,21.4-20.03,37-43.72,38.76C191.42,86.31,206.29,52.78,176.16,11.81z"/>
	<path class="st3" d="M165.44,109.83h0.1c24.44,0,44.26-19.81,44.26-44.26c0-16.24-8.75-30.43-21.79-38.13
		c20.25,20.34,14.85,40.38,5.79,59.33c3.88-4.94,7.29-10.48,10.53-16.24c-6.58,21.4-20.03,37-43.72,38.76l-0.64,0.05l-0.68,0.05
		C161.29,109.67,163.34,109.83,165.44,109.83 M165.24,21.28c1.92,0,3.82,0.12,5.68,0.36c-20.61,1.56-31.93,13.23-40.24,28.18
		c5.18-8.41,10.17-13.07,15.01-14.8c-30.74,29.24-15.74,54.91-2.53,68.88c-13.25-7.65-22.18-21.96-22.18-38.36
		C120.98,41.1,140.8,21.28,165.24,21.28z"/>
	<path class="st4" d="M170.93,21.65c-9.59,15.79-21.53,26.31-27,36.84c-9.76,18.79-4.07,36.84,8.57,56.46
		c-12.2-14.65-20.07-30.3-15.81-53.77c0.28,3.34,0.11,4.5,0.8,6.2C140.76,49.33,155.4,40.23,170.93,21.65 M173.67,30.76
		c-17.75,35.34-23.87,61.32-19.23,78.64C143.49,90.8,152.31,63.54,173.67,30.76z M176.16,11.81c27.88,37.91,19.77,72.07-17.26,98.72
		C184.26,82.16,197.32,45.96,176.16,11.81z"/>
</g>
</svg>
